# xmcd CD database file
#
# Track frame offsets:
#	150
#	14602
#	29585
#	39810
#	52502
#	65127
#	77650
#	88507
#	100929
#	113840
#	127305
#	141175
#	154110
#	166972
#	181765
#	194747
#	210417
#	223747
#	238472
#	250777
#	262462
#	274630
#
# Disc length: 3880 seconds
#
# Revision: 0
# Processed by: cddbd v1.5.2PL0 Copyright (c) Steve Scherf et al.
# Submitted via: CDex 1.51
#
DISCID=450f2616
DTITLE=Elmore James - Blues After Hours
DYEAR=1956
DGENRE=Blues
TTITLE0=Dust My Blues
TTITLE1=Sunnyland
TTITLE2=Mean And Evil
TTITLE3=Dark And Dreary (Take 4)
TTITLE4=Standing At The Crossroads
TTITLE5=Happy Home
TTITLE6=No Love In My Heart
TTITLE7=Blues Before Sunrise
TTITLE8=I Was A Fool
TTITLE9=Goodbye Baby
TTITLE10=Please Find My Baby
TTITLE11=Hand In Hand
TTITLE12=Rock My Baby Right
TTITLE13=I Believe
TTITLE14=Sinful Woman
TTITLE15=I Held My Baby Last Night
TTITLE16=Where Can My Baby Be
TTITLE17=1839 Blues
TTITLE18=Canton, Mississippi Breakdown
TTITLE19=So Mean To Me (Take 3)
TTITLE20=Wild About You Baby
TTITLE21=Long Tall Woman
EXTD=YEAR: 1956
EXTT0=
EXTT1=
EXTT2=
EXTT3=
EXTT4=
EXTT5=
EXTT6=
EXTT7=
EXTT8=
EXTT9=
EXTT10=
EXTT11=
EXTT12=
EXTT13=
EXTT14=
EXTT15=
EXTT16=
EXTT17=
EXTT18=
EXTT19=
EXTT20=
EXTT21=
PLAYORDER=
